Coordinates
version=1
nRows=16
nColumns=22
inDegrees=yes

Units are S.I. units (second, meters, Newtons, ...)
If the header above contains a line with 'inDegrees', this indicates whether rotational values are in degrees (yes) or radians (no).

endheader
time	pelvis_tilt	pelvis_list	pelvis_rotation	pelvis_tx	pelvis_ty	pelvis_tz	hip_flexion_r	hip_adduction_r	hip_rotation_r	knee_angle_r	ankle_angle_r	subtalar_angle_r	hip_flexion_l	hip_adduction_l	hip_rotation_l	knee_angle_l	ankle_angle_l	subtalar_angle_l	lumbar_extension	lumbar_bending	lumbar_rotation
      3.37000000	      6.67239762	     -0.26375417	   -326.93342649	     -0.31652463	      0.89441114	     -0.69031012	     23.77387039	      6.49303059	    -22.26362392	    -21.32292438	     -2.05481402	     -8.42796216	    -20.64698791	    -11.96691383	    -12.66628136	    -29.19175898	     17.18634431	      3.12354557	    -11.62626249	      8.92696874	    -20.40604529
      3.38000000	      6.90702014	     -0.56361560	   -327.27655353	     -0.30361760	      0.89568432	     -0.69427154	     23.50639047	      7.19765202	    -21.54434587	    -22.38450432	     -1.81918166	     -9.29340669	    -20.29351713	    -12.54777226	    -11.64723578	    -31.18862712	     14.25079469	      3.51700434	    -11.32305020	      9.17421428	    -20.34732260
      3.39000000	      7.12398704	     -0.76051348	   -327.62396861	     -0.29092395	      0.89726530	     -0.69807162	     23.13018703	      7.85228928	    -20.68510810	    -23.33275434	     -1.34010774	     -9.91512230	    -19.75063528	    -13.00148797	    -10.38671378	    -33.41059605	     11.12909254	      3.64716865	    -11.10849236	      9.31106648	    -20.28161165
      3.40000000	      7.37461501	     -0.90781304	   -327.94507310	     -0.27846268	      0.89906348	     -0.70172491	     22.61161673	      8.50823379	    -19.84449522	    -24.12980394	     -0.66727483	    -10.51702617	    -19.02294649	    -13.43784760	     -9.00729475	    -35.87598758	      7.92427784	      3.62946690	    -10.99836532	      9.42261295	    -20.21390333
      3.41000000	      7.62524812	     -0.96427462	   -328.22918901	     -0.26634778	      0.90103366	     -0.70527922	     21.95792110	      9.08929104	    -19.04672143	    -24.77082371	      0.10604872	    -10.92306910	    -18.11540670	    -13.75082099	     -7.40018616	    -38.51376177	      4.74400340	      3.31763409	    -10.99186757	      9.45527267	    -20.13209300
      3.42000000	      7.86155056	     -1.00405253	   -328.45599389	     -0.25460885	      0.90296780	     -0.70869315	     21.23284881	      9.63931101	    -18.35209354	    -25.24981503	      0.96315460	    -11.44432819	    -16.95232938	    -14.04015840	     -5.72237202	    -41.36288618	      1.71482288	      2.87608025	    -11.03072972	      9.47322492	    -20.07690302
      3.43000000	      8.10320541	     -0.97877740	   -328.60011408	     -0.24332706	      0.90492461	     -0.71203724	     20.39510609	     10.09308662	    -17.84263166	    -25.57724431	      1.82437122	    -11.73936234	    -15.60367930	    -14.23452097	     -3.90842072	    -44.32880762	     -1.07333632	      2.26031493	    -11.16684007	      9.44691110	    -20.06945411
      3.44000000	      8.32087140	     -0.98259888	   -328.67105452	     -0.23245951	      0.90670882	     -0.71526926	     19.53487536	     10.52092526	    -17.53309915	    -25.75263220	      2.66985629	    -12.07652739	    -14.00198031	    -14.42644207	     -2.10105550	    -47.40869986	     -3.50403809	      1.55625220	    -11.31091468	      9.45040300	    -20.07021132
      3.45000000	      8.53878253	     -1.01680125	   -328.67466776	     -0.22198380	      0.90835654	     -0.71839296	     18.62450619	     10.93844574	    -17.42646538	    -25.76100696	      3.45894043	    -12.36860211	    -12.20636982	    -14.62562499	     -0.34242391	    -50.52348543	     -5.49450412	      0.84951611	    -11.48377422	      9.49919133	    -20.07768249
      3.46000000	      8.73882597	     -1.10900626	   -328.65678340	     -0.21181906	      0.90980889	     -0.72133732	     17.71107542	     11.38046498	    -17.45352774	    -25.63068512	      4.19390600	    -12.65791060	    -10.22883536	    -14.85128887	      1.27886062	    -53.60780066	     -6.96719039	      0.14613807	    -11.64995650	      9.59856569	    -20.04507791
      3.47000000	      8.95208438	     -1.24709395	   -328.61326444	     -0.20191274	      0.91116178	     -0.72412641	     16.75191089	     11.85504514	    -17.61711274	    -25.35075633	      4.82021926	    -12.83072158	     -8.14215329	    -15.10683975	      2.78422290	    -56.58153020	     -7.86099822	     -0.42586899	    -11.83652720	      9.75515345	    -20.00949188
      3.48000000	      9.17580016	     -1.43424312	   -328.59698751	     -0.19216139	      0.91244457	     -0.72670287	     15.75336296	     12.39033158	    -17.81891930	    -24.93310479	      5.31890801	    -12.91016192	     -5.99671937	    -15.39085494	      4.12817658	    -59.37224913	     -8.14826537	     -0.88069837	    -12.03461522	      9.95972157	    -19.93132791
      3.49000000	      9.34616536	     -1.65956570	   -328.69316850	     -0.18244307	      0.91361326	     -0.72897228	     14.78650754	     12.96411584	    -17.92913712	    -24.43903190	      5.78759503	    -12.94015004	     -3.79073785	    -15.65555559	      5.23834589	    -61.93153887	     -7.90658726	     -1.43163047	    -12.18562377	     10.14572247	    -19.72669265
      3.50000000	      9.50415650	     -1.89089291	   -328.91409792	     -0.17271675	      0.91480461	     -0.73094095	     13.78722450	     13.57671862	    -17.89381489	    -23.86570553	      6.14462875	    -12.87420707	     -1.62310335	    -15.88828666	      6.14382178	    -64.20257410	     -7.18031051	     -2.02156105	    -12.34503539	     10.30483036	    -19.43796338
      3.51000000	      9.63532531	     -2.12430922	   -329.29636640	     -0.16292758	      0.91603617	     -0.73257043	     12.76444747	     14.22350924	    -17.64426593	    -23.22769470	      6.35405784	    -12.74389817	      0.48615532	    -16.08178830	      6.83100987	    -66.16339370	     -6.12399443	     -2.61867540	    -12.50000895	     10.41904882	    -19.04652190
      3.52000000	      9.71505267	     -2.32235999	   -329.87925280	     -0.15305149	      0.91730967	     -0.73384039	     11.73373322	     14.84982501	    -17.13096632	    -22.58311456	      6.56208654	    -12.52762569	      2.50715324	    -16.19229973	      7.26919812	    -67.79646334	     -4.82562907	     -3.49283423	    -12.64783924	     10.43095042	    -18.52040971
